<svg width="82" height="45" viewBox="0 0 82 45" fill="none" xmlns="http://www.w3.org/2000/svg">
<path d="M20.3963 35.422L17.1515 26.218H6.79877L3.5539 35.422H0L11.8463 3.35962H12.2584L24.1047 35.422H20.3963ZM12.0009 11.4511L7.77739 23.4871H16.2244L12.0009 11.4511Z" fill="#529E0F"/>
<path d="M36.5692 27.5834C35.23 27.5834 34.011 27.3474 32.9123 26.8754C32.2942 27.6171 31.9851 28.3251 31.9851 28.9994C31.9851 29.8086 32.5002 30.3986 33.5303 30.7694C34.5604 31.1066 36.449 31.2751 39.196 31.2751C41.5996 31.2751 43.4195 31.528 44.6556 32.0337C45.8917 32.5394 46.733 33.2306 47.1794 34.1071C47.6258 34.9837 47.849 35.9952 47.849 37.1414C47.849 38.3214 47.5227 39.4509 46.8703 40.5297C46.2179 41.6086 45.1363 42.4683 43.6255 43.1089C42.149 43.7832 40.1574 44.1203 37.6508 44.1203C34.3544 44.1203 31.7276 43.6146 29.7704 42.6032C27.8475 41.6255 26.8861 40.142 26.8861 38.1529C26.8861 36.9054 27.7291 35.6956 28.8433 35.0269C30.16 34.2367 31.7695 33.4466 32.9767 33.8416C31.8466 33.1011 28.9553 31.2008 28.9528 29.8907C28.9528 29.149 29.0321 28.3926 29.4098 27.6846C29.7876 26.9766 30.3026 26.2854 30.955 25.6111C29.2038 24.094 28.3282 22.0542 28.3282 19.492C28.3282 18.0085 28.6544 16.6599 29.3068 15.4462C29.9936 14.2325 30.955 13.2716 32.1912 12.5636C33.4273 11.8219 34.8866 11.4511 36.5692 11.4511C37.8396 11.4511 38.9728 11.6702 39.9686 12.1085C40.9987 12.5131 41.8743 13.0862 42.5954 13.8279C43.4881 13.0188 44.4324 12.4456 45.4282 12.1085C46.424 11.7376 47.5914 11.6028 48.9306 11.7039L49.3941 14.6877C48.364 14.5865 47.3854 14.6034 46.4583 14.7382C45.5655 14.8731 44.7243 15.1934 43.9345 15.6991C44.5182 16.8454 44.8101 18.1097 44.8101 19.492C44.8101 20.9754 44.4667 22.3408 43.78 23.5883C43.1276 24.802 42.1833 25.7797 40.9472 26.5214C39.7454 27.2294 38.286 27.5834 36.5692 27.5834ZM36.5692 24.5491C38.08 24.5491 39.3161 24.0603 40.2776 23.0825C41.239 22.0711 41.7198 20.8742 41.7198 19.492C41.7198 18.1097 41.239 16.9297 40.2776 15.9519C39.3161 14.9405 38.08 14.4348 36.5692 14.4348C35.0927 14.4348 33.8565 14.9405 32.8607 15.9519C31.8993 16.9297 31.4186 18.1097 31.4186 19.492C31.4186 20.8742 31.8993 22.0711 32.8607 23.0825C33.8565 24.0603 35.0927 24.5491 36.5692 24.5491ZM30.2855 37.7483C30.2855 38.8946 30.9379 39.788 32.2427 40.4286C33.5818 41.0692 35.4017 41.3895 37.7023 41.3895C40.0372 41.3895 41.7369 41.0355 42.8014 40.3275C43.9002 39.6532 44.4496 38.7766 44.4496 37.6977C44.4496 36.956 44.3122 36.3492 44.0375 35.8772C43.7628 35.4052 43.1963 35.0511 42.3378 34.8151C41.4794 34.5791 40.1746 34.4611 38.4234 34.4611C37.2216 34.4611 36.1228 34.4106 35.127 34.3094C34.1067 34.3094 32.9767 33.8416 32.9767 33.8416C32.9767 33.8416 31.1439 34.8826 30.8005 35.422C30.4571 35.9952 30.2855 36.7706 30.2855 37.7483Z" fill="#529E0F"/>
<path d="M53.1541 35.422V3.9159H62.2706C65.979 3.9159 68.6745 4.6239 70.357 6.03991C72.0739 7.45591 72.9323 9.29335 72.9323 11.5522C72.9323 13.0356 72.5203 14.4348 71.6962 15.7497C70.8721 17.0645 69.7046 17.9917 68.1938 18.5311C70.0136 19.138 71.473 20.2 72.5718 21.7171C73.6706 23.2005 74.22 24.8188 74.22 26.572C74.22 29.2354 73.2585 31.3763 71.3356 32.9946C69.4127 34.6129 66.3739 35.422 62.2191 35.422H53.1541ZM56.708 16.9634H61.7555C64.6055 16.9634 66.5799 16.4914 67.6787 15.5474C68.7775 14.6034 69.3269 13.4065 69.3269 11.9568C69.3269 10.5745 68.7947 9.39449 67.7302 8.41677C66.6658 7.40534 64.8631 6.89963 62.3221 6.89963H56.708V16.9634ZM56.708 32.3371H62.8372C65.0691 32.3371 66.889 31.8989 68.2968 31.0223C69.7046 30.112 70.4085 28.5611 70.4085 26.3697C70.4085 24.4817 69.7733 22.9477 68.5028 21.7677C67.2667 20.554 65.0863 19.9471 61.9616 19.9471H56.708V32.3371Z" fill="#529E0F"/>
<path d="M71.7665 2.09938C71.8492 3.29059 71.0823 4.35753 69.9462 4.79236C69.1986 4.40423 68.5801 4.02079 67.6993 3.92597L67.6721 3.53455C67.5687 2.04514 68.7932 0.750185 70.4071 0.642169L71.6595 0.55835L71.7665 2.09938Z" fill="#93C843"/>
<path d="M77.2449 0.727829C74.2453 0.784855 71.7373 2.7431 70.8902 5.40923C72.3693 6.59606 73.3646 8.34287 73.5367 10.3273L74.5223 10.3086C78.2729 10.2373 81.2545 7.19423 81.1819 3.51169L81.1255 0.654057L77.2449 0.727829Z" fill="#93C843"/>
</svg>
