<svg width="119" height="120" viewBox="0 0 119 120" fill="none" xmlns="http://www.w3.org/2000/svg">
<rect y="0.5" width="119" height="119" rx="59.5" fill="white"/>
<path d="M39.2127 73.422L35.9679 64.218H25.6152L22.3703 73.422H18.8164L30.6628 41.3596H31.0748L42.9212 73.422H39.2127ZM30.8173 49.4511L26.5938 61.4871H35.0408L30.8173 49.4511Z" fill="#529E0F"/>
<path d="M55.3856 65.5834C54.0464 65.5834 52.8274 65.3474 51.7287 64.8754C51.1106 65.6171 50.8016 66.3251 50.8016 66.9994C50.8016 67.8086 51.3166 68.3986 52.3467 68.7694C53.3768 69.1066 55.2654 69.2751 58.0124 69.2751C60.416 69.2751 62.2359 69.528 63.472 70.0337C64.7081 70.5394 65.5494 71.2306 65.9958 72.1071C66.4422 72.9837 66.6654 73.9952 66.6654 75.1414C66.6654 76.3214 66.3392 77.4509 65.6867 78.5297C65.0343 79.6086 63.9527 80.4683 62.4419 81.1089C60.9654 81.7832 58.9738 82.1203 56.4672 82.1203C53.1708 82.1203 50.544 81.6146 48.5868 80.6032C46.6639 79.6255 45.7025 78.142 45.7025 76.1529C45.7025 74.9054 46.5455 73.6956 47.6597 73.0269C48.9764 72.2367 50.5859 71.4466 51.7931 71.8416C50.663 71.1011 47.7717 69.2008 47.7692 67.8907C47.7692 67.149 47.8485 66.3926 48.2263 65.6846C48.604 64.9766 49.119 64.2854 49.7714 63.6111C48.0202 62.094 47.1446 60.0542 47.1446 57.492C47.1446 56.0085 47.4708 54.6599 48.1232 53.4462C48.81 52.2325 49.7714 51.2716 51.0076 50.5636C52.2437 49.8219 53.703 49.4511 55.3856 49.4511C56.6561 49.4511 57.7892 49.6702 58.785 50.1085C59.8151 50.5131 60.6907 51.0862 61.4118 51.8279C62.3045 51.0188 63.2488 50.4456 64.2446 50.1085C65.2404 49.7376 66.4078 49.6028 67.747 49.7039L68.2105 52.6877C67.1804 52.5865 66.2018 52.6034 65.2747 52.7382C64.3819 52.8731 63.5407 53.1934 62.7509 53.6991C63.3346 54.8454 63.6265 56.1097 63.6265 57.492C63.6265 58.9754 63.2831 60.3408 62.5964 61.5883C61.944 62.802 60.9997 63.7797 59.7636 64.5214C58.5618 65.2294 57.1024 65.5834 55.3856 65.5834ZM55.3856 62.5491C56.8964 62.5491 58.1326 62.0603 59.094 61.0825C60.0554 60.0711 60.5362 58.8742 60.5362 57.492C60.5362 56.1097 60.0554 54.9297 59.094 53.9519C58.1326 52.9405 56.8964 52.4348 55.3856 52.4348C53.9091 52.4348 52.6729 52.9405 51.6771 53.9519C50.7157 54.9297 50.235 56.1097 50.235 57.492C50.235 58.8742 50.7157 60.0711 51.6771 61.0825C52.6729 62.0603 53.9091 62.5491 55.3856 62.5491ZM49.1019 75.7483C49.1019 76.8946 49.7543 77.788 51.0591 78.4286C52.3982 79.0692 54.2181 79.3895 56.5187 79.3895C58.8536 79.3895 60.5533 79.0355 61.6178 78.3275C62.7166 77.6532 63.266 76.7766 63.266 75.6977C63.266 74.956 63.1286 74.3492 62.8539 73.8772C62.5792 73.4052 62.0127 73.0511 61.1542 72.8151C60.2958 72.5791 58.991 72.4611 57.2398 72.4611C56.038 72.4611 54.9392 72.4106 53.9434 72.3094C52.9231 72.3094 51.7931 71.8416 51.7931 71.8416C51.7931 71.8416 49.9603 72.8826 49.6169 73.422C49.2735 73.9952 49.1019 74.7706 49.1019 75.7483Z" fill="#529E0F"/>
<path d="M71.9705 73.422V41.9159H81.087C84.7954 41.9159 87.4909 42.6239 89.1734 44.0399C90.8903 45.4559 91.7487 47.2933 91.7487 49.5522C91.7487 51.0356 91.3367 52.4348 90.5126 53.7497C89.6885 55.0645 88.521 55.9917 87.0102 56.5311C88.83 57.138 90.2894 58.2 91.3882 59.7171C92.487 61.2005 93.0364 62.8188 93.0364 64.572C93.0364 67.2354 92.0749 69.3763 90.152 70.9946C88.2292 72.6129 85.1903 73.422 81.0355 73.422H71.9705ZM75.5244 54.9634H80.5719C83.4219 54.9634 85.3963 54.4914 86.4951 53.5474C87.5939 52.6034 88.1433 51.4065 88.1433 49.9568C88.1433 48.5745 87.6111 47.3945 86.5466 46.4168C85.4822 45.4053 83.6795 44.8996 81.1385 44.8996H75.5244V54.9634ZM75.5244 70.3371H81.6536C83.8855 70.3371 85.7054 69.8989 87.1132 69.0223C88.521 68.112 89.2249 66.5611 89.2249 64.3697C89.2249 62.4817 88.5897 60.9477 87.3192 59.7677C86.0831 58.554 83.9027 57.9471 80.778 57.9471H75.5244V70.3371Z" fill="#529E0F"/>
<path d="M90.5829 40.0994C90.6656 41.2906 89.8987 42.3575 88.7626 42.7924C88.015 42.4042 87.3965 42.0208 86.5157 41.926L86.4885 41.5345C86.3851 40.0451 87.6096 38.7502 89.2235 38.6422L90.4759 38.5583L90.5829 40.0994Z" fill="#93C843"/>
<path d="M96.0613 38.7278C93.0617 38.7849 90.5537 40.7431 89.7066 43.4092C91.1858 44.5961 92.181 46.3429 92.3531 48.3273L93.3388 48.3086C97.0893 48.2373 100.071 45.1942 99.9983 41.5117L99.9419 38.6541L96.0613 38.7278Z" fill="#93C843"/>
</svg>
