<svg width="151" height="150" viewBox="0 0 151 150" fill="none" xmlns="http://www.w3.org/2000/svg">
<path d="M103.382 111.687C96.0861 110.775 98.9797 96.2697 100.581 89.631C108.266 89.631 116.808 101.024 120.401 104.031C116.731 108.24 109.927 112.505 103.382 111.687Z" fill="black"/>
<path d="M44.7833 64.8303C51.5696 53.2477 62.4104 31.1311 66.717 29.4507C71.0236 27.7702 82.1965 32.7572 82.38 38.3117C82.5159 42.4253 74.2393 57.3083 68.4985 67.5123M58.913 85.0254C55.099 91.5363 51.4817 97.3691 49.1011 101.784C47.8787 104.052 46.2616 106.106 44.1961 107.645L30.1879 118.084C29.199 118.82 27.7927 118.115 27.7916 116.882L27.775 98.2494C27.7726 95.6159 28.4625 93.0287 29.7756 90.746C31.1704 88.3213 32.9078 85.3054 35.1627 81.4208" stroke="black" stroke-width="3"/>
<path d="M79.7132 46.1727C76.6663 41.1503 66.424 38.1832 61.6837 37.3274C62.1303 36.5128 63.2523 34.4893 64.1675 32.9121C65.3114 30.9405 70.9778 25.7068 78.6415 31.0627C84.7724 35.3474 81.9105 42.9213 79.7132 46.1727Z" fill="black"/>
<path d="M28.0645 98.4685C28.0645 98.4685 36.9649 97.0175 39.6723 99.1114C42.3796 101.205 44.4534 106.134 44.4534 106.134" stroke="black" stroke-width="3"/>
<path d="M36.5461 112.975C34.1225 108.902 29.8947 108.492 27.9197 109.694L29.0295 118.38L36.5461 112.975Z" fill="black"/>
<path d="M40.1555 98.4979L45.7029 90.2196M74.3468 39.5246L57.2539 69.4441" stroke="black" stroke-width="3"/>
<path d="M80.6244 45.8248C82.1735 46.9391 85.0706 48.6589 94.7007 54.788C104.887 61.2715 125.924 68.9444 133.964 72.5664C132.067 81.616 125.279 100.067 115.447 105.921" stroke="black" stroke-width="3"/>
<path d="M66.041 35.7072C60.8237 37.6946 48.6302 38.7355 41.1735 40.18C30.9886 42.8924 28.2428 43.325 28.243 54.0153C29.0189 59.4461 31.6051 77.4193 33.5446 77.9365C35.4842 78.4538 44.794 74.6147 44.794 68.756C44.794 61.9814 44.3509 55.356 43.963 52.6406" stroke="black" stroke-width="3" stroke-linecap="round"/>
<path d="M28.6348 56.7701C26.9411 57.4344 23.4739 60.3771 23.155 66.8334C22.8361 73.2897 25.7156 84.8538 28.635 90.3207" stroke="black" stroke-width="3" stroke-linecap="round"/>
<path d="M69.3083 67.1193C63.2183 68.2689 51.1625 70.6538 48.8306 71.4311C45.9158 72.4028 37.3874 75.7494 35.4442 80.3914C33.501 85.0335 36.652 92.245 44.7486 90.6257C52.8452 89.0063 60.822 82.6299 70.0153 82.2267C88.4 81.4202 90.5756 83.773 99.4741 87.2587C111.174 91.8415 116.173 100.826 119.088 103.165" stroke="black" stroke-width="3"/>
</svg>
