<svg width="151" height="150" viewBox="0 0 151 150" fill="none" xmlns="http://www.w3.org/2000/svg">
<path d="M34.0235 128.653C34.0235 128.653 48.5209 112.82 59.8411 113.427C64.6853 113.688 66.333 115.706 75.9192 114.925C85.507 114.142 89.3317 109.052 96.0299 109.26C102.73 109.467 107.664 109.523 108.589 105.926C109.513 102.329 99.8121 95.5392 92.6922 96.3683C85.5723 97.1992 80.1565 100.442 80.1565 100.442" stroke="black" stroke-width="3" stroke-miterlimit="10" stroke-linecap="round" stroke-linejoin="round"/>
<path d="M84.5385 98.3003C84.5385 98.3003 83.7764 93.0503 74.7442 92.8968C72.7614 92.8633 67.8607 93.8618 65.4263 95.3154" stroke="black" stroke-width="3" stroke-miterlimit="10" stroke-linecap="round" stroke-linejoin="round"/>
<path d="M27.5211 99.7536C27.5211 99.7536 35.5354 94.553 38.4038 90.4726C47.0073 78.2298 57.0433 75.7212 66.8164 73.6043C76.5843 71.4892 81.5943 70.0514 85.8422 68.5519C94.2129 65.5988 101.888 69.2276 95.0261 72.1401C90.1642 74.2041 86.2832 75.3172 86.2832 75.3172" stroke="black" stroke-width="3" stroke-miterlimit="10" stroke-linecap="round" stroke-linejoin="round"/>
<path d="M78.8016 77.8376C86.9606 75.0909 93.1614 73.1874 98.0639 71.5168C103.656 69.6116 114.862 66.1275 114.95 72.0037C114.99 74.6798 113.523 74.133 103.326 77.9152" stroke="black" stroke-width="3" stroke-miterlimit="10" stroke-linecap="round" stroke-linejoin="round"/>
<path d="M88.275 82.5585L107.172 76.7352L114.729 74.105C114.729 74.105 123.492 71.1766 125.226 74.4313C127.36 78.4411 119.895 83.0437 114.391 84.088C111.439 84.649 106.853 85.6087 106.853 85.6087" stroke="black" stroke-width="3" stroke-miterlimit="10" stroke-linecap="round" stroke-linejoin="round"/>
<path d="M97.5082 87.8499C99.9373 87.3101 105.187 85.8476 107.796 85.4666C109.25 85.2549 123.869 80.1866 126.351 86.5497C127.911 90.5507 116.94 92.9164 105.969 95.9083C101.276 97.1872 100.269 97.6195 100.269 97.6195" stroke="black" stroke-width="3" stroke-miterlimit="10" stroke-linecap="round" stroke-linejoin="round"/>
<path d="M60.9367 41.8719C61.2384 40.9528 63.8475 31.342 67.9031 30.9345C71.9588 30.5287 87.2588 30.2535 89.0494 31.2308C90.8417 32.2081 96.5345 39.9472 96.067 41.736C95.5996 43.5248 79.0981 65.6026 77.2741 64.3659C75.45 63.1311 60.6368 42.791 60.9367 41.8719Z" stroke="black" stroke-width="3" stroke-miterlimit="10" stroke-linecap="round" stroke-linejoin="round"/>
<path d="M61.1908 41.9575L95.806 40.9625" stroke="black" stroke-width="3" stroke-miterlimit="10" stroke-linecap="round" stroke-linejoin="round"/>
<path d="M59.3965 25.3696L61.8011 28.2786" stroke="black" stroke-width="3" stroke-miterlimit="10" stroke-linecap="round" stroke-linejoin="round"/>
<path d="M78.6624 21.0004C78.643 22.4346 78.5565 25.3824 78.5565 25.3824" stroke="black" stroke-width="3" stroke-miterlimit="10" stroke-linecap="round" stroke-linejoin="round"/>
<path d="M95.85 28.7938L99.5511 26.153" stroke="black" stroke-width="3" stroke-miterlimit="10" stroke-linecap="round" stroke-linejoin="round"/>
<path d="M43.4032 84.498C39.2293 89.2576 39.2664 91.9231 42.8952 98.7255" stroke="black" stroke-width="3" stroke-miterlimit="10" stroke-linecap="round" stroke-linejoin="round"/>
<path d="M61.443 113.584C57.4155 112.742 55.3074 111.643 52.5783 108.738" stroke="black" stroke-width="3" stroke-miterlimit="10" stroke-linecap="round" stroke-linejoin="round"/>
<path d="M33.5313 128.923C33.5313 128.923 30.5376 121.655 28.3872 112.436C24.4726 95.6537 21.3697 71.7325 30.1849 68.6136C41.7803 64.512 43.2145 84.3511 43.2145 84.3511C43.2145 84.3511 41.7503 86.7997 36.1299 93.1628C32.2436 97.5642 26.1134 100.454 26.1134 100.454C26.1134 100.454 26.7642 104.979 28.3678 112.39C29.428 117.296 33.5313 128.923 33.5313 128.923Z" fill="black" stroke="black" stroke-width="3" stroke-miterlimit="10" stroke-linejoin="round"/>
</svg>
