<svg width="151" height="150" viewBox="0 0 151 150" fill="none" xmlns="http://www.w3.org/2000/svg">
<path d="M103.037 54.0601C103.037 54.0601 103.397 46.5211 101.222 42.3976C99.0471 38.2756 92.447 34.0426 92.162 29.3911C91.862 24.7396 95.4321 24.1891 99.9171 28.1146C104.402 32.0386 110.432 39.4726 113.042 45.9526C115.652 52.4326 122.957 69.2026 123.482 81.1126C124.007 93.0226 123.707 123.501 123.707 123.501L97.9221 123.671C97.9221 123.671 104.612 107.06 104.282 96.6391C104.117 91.3501 102.077 83.8996 95.8821 82.7086C89.6871 81.5191 76.1271 82.2436 76.6866 77.0146C77.2461 71.7856 84.4971 70.3126 89.3271 71.4376C94.1421 72.5611 101.177 71.9371 102.272 66.2191C103.382 60.5011 103.037 54.0601 103.037 54.0601Z" stroke="#111827" stroke-width="3" stroke-miterlimit="10" stroke-linejoin="round"/>
<path d="M82.787 70.672L90.152 70.5655C90.152 70.5655 94.322 70.993 94.427 66.8245C94.547 62.656 94.112 36.7915 94.112 36.7915C94.112 36.7915 93.692 32.41 87.167 32.731C80.642 33.0505 30.809 32.02 30.809 32.02C30.809 32.02 26 32.128 26 36.5095C26 40.891 26.1065 66.115 26.1065 66.115C26.1065 66.115 25.724 70.4725 32.6255 70.177C37.112 69.985 82.787 70.672 82.787 70.672Z" stroke="#111827" stroke-width="3" stroke-miterlimit="10" stroke-linejoin="round"/>
<path d="M94.892 56.02C94.892 56.02 98.867 56.695 99.872 59.614C100.877 62.533 102.197 66.544 102.197 66.544" stroke="#111827" stroke-width="3" stroke-miterlimit="10" stroke-linejoin="round"/>
<path d="M94.397 46.2114C94.397 46.2114 98.117 48.0309 100.352 50.1054C102.572 52.1799 103.022 53.9439 103.022 53.9439" stroke="#111827" stroke-width="3" stroke-miterlimit="10" stroke-linejoin="round"/>
<path d="M94.532 41.2046C94.532 41.2046 97.3819 41.8031 99.0919 43.2731C100.802 44.7431 102.467 46.1876 102.467 46.1876" stroke="#111827" stroke-width="3" stroke-miterlimit="10" stroke-linejoin="round"/>
<path d="M96.5121 82.8428C96.5121 82.8428 102.542 83.4098 105.887 83.1458" stroke="#111827" stroke-width="3" stroke-miterlimit="10" stroke-linecap="round" stroke-linejoin="round"/>
<path d="M37.7429 39.1782C38.8013 38.2503 77.2355 39.1846 79.787 39.1786C82.337 39.1726 80.837 42.1021 81.347 52.2586C81.992 65.3491 81.8107 64.4818 77.8012 64.4998C73.8577 64.5178 39.2246 64.0503 38.8013 63.7502C37.7429 62.9998 37.3013 39.7498 37.7429 39.1782Z" fill="#111827" stroke="#111827" stroke-width="3" stroke-miterlimit="10" stroke-linejoin="round"/>
<path d="M32.1053 47.6616C32.1053 49.5 32.1083 52.0446 32.0513 53.8446" stroke="#111827" stroke-width="3" stroke-miterlimit="10" stroke-linecap="round" stroke-linejoin="round"/>
<path d="M88.772 49.6917C87.962 47.5107 85.472 50.5827 86.012 52.2087C86.987 55.1397 89.867 52.6527 88.772 49.6917Z" stroke="#111827" stroke-width="3" stroke-miterlimit="10" stroke-linecap="round" stroke-linejoin="round"/>
<path d="M123.677 123.449C123.677 123.449 63.7459 125.812 76.9489 118.703C88.1569 112.672 100.937 114.827 100.937 114.827L98.1169 123.013" fill="#111827"/>
<path d="M123.677 123.449C123.677 123.449 63.7459 125.812 76.9489 118.703C88.1569 112.672 100.937 114.827 100.937 114.827L98.1169 123.013" stroke="#111827" stroke-width="3" stroke-miterlimit="10" stroke-linejoin="round"/>
</svg>
