<svg width="151" height="150" viewBox="0 0 151 150" fill="none" xmlns="http://www.w3.org/2000/svg">
<path d="M82.7267 77.2485C82.7267 77.2485 74.8217 53.97 69.9767 53.7465C65.1167 53.5215 63.5567 62.1765 67.3667 70.3845C71.1617 78.591 70.4117 80.6055 67.5767 87.993C64.7417 95.379 67.2918 99.7815 70.6368 104.407" stroke="#111827" stroke-width="3" stroke-miterlimit="10" stroke-linecap="round" stroke-linejoin="round"/>
<path d="M79.0669 65.0127C79.0669 65.0127 91.7569 66.8772 91.9819 73.3692C92.2069 79.8597 86.4619 96.7962 86.5369 102.915C86.6119 109.033 88.7118 126.121 88.7118 126.121" stroke="#111827" stroke-width="3" stroke-miterlimit="10" stroke-linecap="round" stroke-linejoin="round"/>
<path d="M65.0263 65.2042C65.0263 65.2042 55.2499 65.9171 55.9999 69.7496C55.9999 73.4996 68.3413 79.3987 69.1213 79.9387" stroke="#111827" stroke-width="3" stroke-miterlimit="10" stroke-linecap="round" stroke-linejoin="round"/>
<path d="M56.75 71.9993C50.33 70.0193 40.2012 73.289 39.1962 75.362C37.4112 79.0955 43.9512 78.8615 49.5012 78.3605C55.0512 77.861 57.6312 80.9 59.6712 83.696" stroke="#111827" stroke-width="3" stroke-miterlimit="10" stroke-linecap="round" stroke-linejoin="round"/>
<path d="M42.362 78.6671C42.362 78.6671 34.3518 78.3266 33.3768 81.7376C32.4168 85.1471 37.322 84.8396 41.957 85.5326C46.592 86.2256 50.312 85.5341 52.082 88.5431C53.852 91.5506 53.5519 104.691 57.3169 109.69C61.0819 114.69 70.3969 114.888 70.3969 114.888" stroke="#111827" stroke-width="3" stroke-miterlimit="10" stroke-linecap="round" stroke-linejoin="round"/>
<path d="M91.861 71.2898L95.5359 73.7258C95.5359 73.7258 116.941 42.0278 118.906 38.7113C119.341 37.9658 93.6159 22.1063 92.8809 23.0423C89.5209 27.3188 74.75 58.5 74.75 58.5" stroke="#111827" stroke-width="3" stroke-miterlimit="10" stroke-linecap="round" stroke-linejoin="round"/>
<path d="M90.0007 25.9989C90.0007 25.9989 73.6508 20.0724 71.7758 21.1254C69.9008 22.1784 59.0557 57.9924 59.0557 57.9924L64.9507 59.7684" stroke="#111827" stroke-width="3" stroke-miterlimit="10" stroke-linecap="round" stroke-linejoin="round"/>
<path d="M69.8258 22.7578C69.8258 22.7578 65.1157 23.6038 60.7507 23.5528C59.5357 23.5378 47.7458 23.5303 47.4908 25.6573C47.2358 27.7843 50.3558 63.6388 52.3658 63.6718C54.3908 63.7048 65.0557 61.7158 65.0557 61.7158" stroke="#111827" stroke-width="3" stroke-miterlimit="10" stroke-linecap="round" stroke-linejoin="round"/>
<path d="M47.3714 30.0513C47.3714 30.0513 31.2614 37.1583 32.0264 39.4083C32.8064 41.6598 47.3563 71.5503 49.9363 70.8183C52.5313 70.0863 64.2914 63.4083 64.2914 63.4083" stroke="#111827" stroke-width="3" stroke-miterlimit="10" stroke-linecap="round" stroke-linejoin="round"/>
<path d="M62.5068 113.994C62.5068 113.994 66.4669 120.923 65.9719 127.769" stroke="#111827" stroke-width="3" stroke-miterlimit="10" stroke-linecap="round" stroke-linejoin="round"/>
<path d="M65.9712 128.016C65.9712 128.016 95.5811 128.914 102.781 125.086C110.776 120.842 87.9611 118.417 87.9611 118.417L89.1011 127.556C89.1011 127.556 84.1961 127.919 79.1711 128.052C73.4111 128.204 65.9712 128.016 65.9712 128.016Z" fill="#111827" stroke="#111827" stroke-width="3" stroke-miterlimit="10" stroke-linecap="round" stroke-linejoin="round"/>
<path d="M68.75 53.2503C70.55 51.4503 73.5 55.0003 74.75 57.0003L90.5 27L71.75 21L59 57.75L65 59.25C65.5 58.0001 66.95 55.0503 68.75 53.2503Z" fill="#111827"/>
<path d="M52.25 63.75L62 62.25V63.75L49.25 70.5L34.25 45.75L32 38.25L47 30.75L48.5 43.5L52.25 63.75Z" fill="#111827"/>
<rect x="96" y="37" width="8" height="8" rx="4" fill="#111827"/>
<rect x="76.0622" y="31" width="8" height="8" rx="4" fill="#F9FAFB"/>
<rect x="85.9378" y="50.9641" width="8" height="14" rx="4" transform="rotate(-60 85.9378 50.9641)" fill="#111827"/>
<rect x="66" y="44.9641" width="8" height="14" rx="4" transform="rotate(-60 66 44.9641)" fill="#F9FAFB"/>
</svg>
