<svg width="151" height="150" viewBox="0 0 151 150" fill="none" xmlns="http://www.w3.org/2000/svg">
<path d="M63.6173 39.8785L117.551 38.4348L118.652 79.5586L61.2551 81.095" stroke="black" stroke-width="3" stroke-linecap="round"/>
<path d="M73.1895 57.0714C72.6132 56.6545 64.6268 48.0434 60.981 46.9517C57.3352 45.8599 42.2977 45.6138 40.621 46.3073C38.9444 47.0009 34.9203 49.0593 34.7696 51.8743" stroke="black" stroke-width="3" stroke-linecap="round"/>
<path d="M35.883 42.4195C35.9173 38.691 36.345 30.822 37.7812 29.1746C39.5765 27.1153 53.2552 15.1641 55.0175 14.8755C56.7797 14.587 58.8866 17.7753 57.771 21.1841C56.6555 24.593 45.9038 35.0716 45.9038 35.0716C45.9038 35.0716 45.9506 36.8186 46.2683 37.6682" stroke="black" stroke-width="3" stroke-linecap="round"/>
<path d="M33.647 61.586C33.7893 59.9897 34.6119 53.0455 34.5683 51.4188C34.5138 49.3855 35.9995 41.706 38.0777 39.881C40.156 38.0559 42.0563 37.3379 51.4945 37.5276C60.9328 37.7174 61.4209 38.6775 64.8165 41.1523C67.2218 42.9053 72.9863 48.2873 75.9998 52.0359M69.3904 63.0908C69.9854 63.429 70.9934 63.5883 72.4038 63.6187" stroke="black" stroke-width="3" stroke-linecap="round"/>
<path d="M48.7492 63.2889C50.3121 63.1167 53.8467 62.4786 55.482 61.3038" stroke="black" stroke-width="3" stroke-linecap="round"/>
<path d="M52.0896 65.5932C56.0089 68.4471 64.75 73.5179 68.4865 72.8466C73.1571 72.0073 72.7422 66.1543 70.8634 64.5721C68.9846 62.99 58.3236 53.4793 55.9596 52.8284C53.5956 52.1775 40.7777 49.8073 35.9022 55.5551C34.7454 56.9188 33.9724 58.5197 33.4808 63.0221C32.9892 67.5245 30.3874 74.9561 35.8137 96.8322C38.7691 111.942 36.6406 127.724 36.6406 127.724C50.9705 131.983 65.2084 129.597 65.2084 129.597L57.0376 93.1013" stroke="black" stroke-width="3" stroke-linecap="round"/>
<path d="M55.3942 93.1859C58.5604 90.8409 60.5337 86.443 60.7151 81.7602C60.942 75.9067 60.4269 70.993 51.8275 63.4069" stroke="black" stroke-width="3" stroke-linecap="round"/>
<path d="M110.34 38.6999C109.884 38.7523 107.92 38.7814 106.995 38.7894L107.141 44.2701L117.226 44.0001" stroke="black" stroke-width="3" stroke-linecap="round"/>
<path d="M70.4994 34.6624L56.7982 35.0292" stroke="black" stroke-width="3" stroke-linecap="round"/>
<circle cx="90.2051" cy="63.2822" r="17.25" transform="rotate(-1.53331 90.2051 63.2822)" stroke="black" stroke-width="3" stroke-linecap="round"/>
<path d="M68.8147 34.9926L68.9217 38.9886" stroke="black" stroke-width="3" stroke-linecap="round"/>
<path fill-rule="evenodd" clip-rule="evenodd" d="M78.0382 63.253C77.8608 56.6258 83.0894 51.1096 89.7166 50.9322C96.3438 50.7548 101.86 55.9834 102.037 62.6106C102.215 69.2377 96.9862 74.7539 90.359 74.9313C83.7318 75.1087 78.2156 69.8801 78.0382 63.253ZM93.8238 54.4378C93.0466 54.1509 92.184 54.5482 91.897 55.3254C91.6101 56.1025 92.0074 56.9651 92.7846 57.2521C93.7452 57.6068 95.9283 59.1408 96.011 62.2305C96.0332 63.0586 96.7225 63.712 97.5506 63.6898C98.3787 63.6677 99.0321 62.9784 99.0099 62.1502C98.8853 57.4959 95.5809 55.0867 93.8238 54.4378Z" fill="black"/>
<path d="M78.8606 125.988C82.5301 120.913 70.7236 118.885 63.8405 118.623L65.5596 131.027C68.81 130.473 75.7917 130.231 78.8606 125.988Z" fill="black"/>
</svg>
