<svg width="80" height="80" viewBox="0 0 80 80" fill="none" xmlns="http://www.w3.org/2000/svg">
<mask id="mask0_5274_17360" style="mask-type:alpha" maskUnits="userSpaceOnUse" x="0" y="0" width="80" height="80">
<circle cx="40" cy="40" r="40" fill="#E7E7E7"/>
</mask>
<g mask="url(#mask0_5274_17360)">
<circle cx="80" cy="120" r="80" fill="#00C955"/>
<circle cx="80" cy="120" r="65" fill="#92E018"/>
<circle cy="120" r="80" fill="#92E018"/>
<circle cy="120" r="65" fill="#00C955"/>
</g>
<path fill-rule="evenodd" clip-rule="evenodd" d="M15.9247 7.86258L34.0479 0.355691L40.0002 14.7257L45.9525 0.355469L64.0757 7.86236L58.1235 22.2323L72.4931 16.2802L80 34.4034L65.6302 40.3556L59.84 42.5414C59.9456 41.7091 60 40.8608 60 39.9998C60 28.9541 51.0457 19.9998 40 19.9998C28.9543 19.9998 20 28.9541 20 39.9998C20 40.8556 20.0538 41.6989 20.1581 42.5265L14.37 40.3556L0 34.4033L7.50689 16.2801L21.8768 22.2323L15.9247 7.86258Z" fill="#FDC018"/>
<path d="M47.0711 43.2211C50.9763 39.3159 50.9763 32.9843 47.0711 29.079L39.9993 22L32.9289 29.079C29.0237 32.9843 29.0237 39.3159 32.9289 43.2211C36.8342 47.1264 43.1658 47.1264 47.0711 43.2211Z" fill="#007AFF" fill-opacity="0.5"/>
</svg>
