<svg width="65" height="20" viewBox="0 0 65 20" fill="none" xmlns="http://www.w3.org/2000/svg">
<path fill-rule="evenodd" clip-rule="evenodd" d="M64.75 10L64.7495 11L64.749 11.4142L64.7475 11.7319L64.746 11.9998L64.7435 12.2356L64.741 12.4487L64.7375 12.6447L64.7335 12.8269L64.7295 12.9979L64.7245 13.1596L64.719 13.3133L64.713 13.46L64.7065 13.6004L64.7 13.7355L64.6925 13.8657L64.6845 13.9915L64.676 14.1132L64.667 14.2312L64.6575 14.3458L64.6475 14.4572L64.637 14.5658L64.626 14.6715L64.6145 14.7747L64.602 14.8755L64.5895 14.974L64.5765 15.0703L64.563 15.1646L64.5485 15.257L64.534 15.3475L64.519 15.4362L64.503 15.5232L64.487 15.6086L64.47 15.6925L64.4525 15.7748L64.435 15.8558L64.4165 15.9353L64.3975 16.0135L64.378 16.0903L64.358 16.166L64.3375 16.2404L64.3165 16.3136L64.295 16.3856L64.273 16.4566L64.2505 16.5264L64.227 16.5952L64.2035 16.663L64.179 16.7297L64.1545 16.7955L64.129 16.8602L64.103 16.924L64.0765 16.9869L64.0495 17.049L64.022 17.1101L63.994 17.1703L63.965 17.2297L63.936 17.2882L63.906 17.3459L63.8755 17.4028L63.8445 17.459L63.813 17.5142L63.781 17.5688L63.7485 17.6225L63.715 17.6756L63.6815 17.7278L63.647 17.7794L63.612 17.8302L63.5765 17.8803L63.54 17.9296L63.5035 17.9783L63.466 18.0263L63.428 18.0736L63.3895 18.1203L63.35 18.1662L63.31 18.2115L63.27 18.2561L63.2285 18.3001L63.187 18.3435L63.1445 18.3862L63.1015 18.4282L63.058 18.4697L63.0135 18.5105L62.9685 18.5507L62.923 18.5903L62.8765 18.6292L62.8295 18.6677L62.782 18.7054L62.7335 18.7426L62.6845 18.7792L62.635 18.8151L62.5845 18.8506L62.533 18.8854L62.481 18.9196L62.4285 18.9533L62.375 18.9865L62.321 19.0189L62.266 19.0509L62.21 19.0823L62.1535 19.1131L62.096 19.1434L62.038 19.1732L61.979 19.2024L61.919 19.2309L61.8585 19.2591L61.797 19.2866L61.7345 19.3136L61.671 19.34L61.6065 19.3659L61.5415 19.3913L61.475 19.4161L61.408 19.4404L61.3395 19.4641L61.2705 19.4874L61.2 19.51L61.1285 19.5322L61.056 19.5539L60.9825 19.575L60.9075 19.5956L60.8315 19.6157L60.7545 19.6352L60.6755 19.6542L60.596 19.6728L60.5145 19.6907L60.432 19.7082L60.3475 19.7251L60.262 19.7416L60.1745 19.7575L60.0855 19.7729L59.995 19.7878L59.9025 19.8022L59.808 19.8161L59.712 19.8295L59.6135 19.8424L59.5125 19.8547L59.4095 19.8666L59.3045 19.8778L59.1965 19.8887L59.0855 19.899L58.9715 19.9088L58.8545 19.9181L58.734 19.927L58.61 19.9353L58.4815 19.9431L58.3485 19.9504L58.2105 19.9572L58.0675 19.9635L57.9175 19.9693L57.761 19.9746L57.5965 19.9794L57.422 19.9837L57.2365 19.9874L57.037 19.9907L56.8205 19.9935L56.5815 19.9958L56.31 19.9977L55.99 19.9989L55.5775 19.9997L49.7747 20L48.5039 19.9998L48.0675 19.9991L47.7368 19.9979L47.4594 19.9961L47.2159 19.9939L46.9961 19.9912L46.7943 19.9881L46.6067 19.9843L46.4308 19.9801L46.2646 19.9754L46.1067 19.9701L45.9561 19.9645L45.8117 19.9583L45.673 19.9515L45.5395 19.9443L45.4104 19.9366L45.2855 19.9284L45.1644 19.9196L45.0468 19.9104L44.9325 19.9007L44.8212 19.8904L44.7127 19.8797L44.6069 19.8683L44.5036 19.8566L44.4025 19.8444L44.3037 19.8316L44.2071 19.8183L44.1124 19.8044L44.0196 19.7901L43.9286 19.7754L43.8395 19.76L43.7519 19.7442L43.6659 19.7278L43.5815 19.7109L43.4986 19.6936L43.417 19.6756L43.3369 19.6572L43.2581 19.6383L43.1806 19.6188L43.1044 19.5988L43.0294 19.5783L42.9555 19.5572L42.8828 19.5357L42.8112 19.5137L42.7407 19.491L42.6712 19.4678L42.6029 19.4442L42.5355 19.42L42.4691 19.3953L42.4036 19.37L42.3392 19.3442L42.2757 19.3178L42.2131 19.2909L42.1513 19.2635L42.0905 19.2355L42.0304 19.2069L41.9713 19.1779L41.913 19.1482L41.8555 19.118L41.7989 19.0872L41.743 19.056L41.6879 19.0241L41.6335 18.9916L41.58 18.9587L41.5272 18.9251L41.4751 18.8909L41.4238 18.8561L41.3732 18.8209L41.3233 18.785L41.2741 18.7484L41.2257 18.7114L41.1778 18.6737L41.1307 18.6354L41.0844 18.5965L41.0386 18.5571L40.9935 18.517L40.9491 18.4762L40.9053 18.4349L40.8623 18.3929L40.8198 18.3503L40.778 18.3071L40.7368 18.2632L40.6962 18.2187L40.6562 18.1735L40.6169 18.1276L40.5782 18.0811L40.5401 18.0339L40.5026 17.986L40.4657 17.9375L40.4294 17.8882L40.3937 17.8382L40.3586 17.7875L40.3241 17.7361L40.2901 17.684L40.2568 17.6311L40.224 17.5774L40.1918 17.523L40.1603 17.4678L40.1292 17.4118L40.0988 17.3551L40.0688 17.2975L40.0395 17.2391L40.0107 17.1798L39.9825 17.1197L39.9548 17.0588L39.9277 16.9969L39.9011 16.9342L39.8751 16.8704L39.8497 16.8058L39.8248 16.7402L39.8004 16.6737L39.7766 16.6061L39.7533 16.5375L39.7306 16.4678L39.7084 16.397L39.6867 16.3251L39.6656 16.2521L39.6451 16.1779L39.625 16.1024L39.6054 16.0258L39.5865 15.9478L39.568 15.8685L39.5501 15.7878L39.5327 15.7057L39.5159 15.6221L39.4995 15.5369L39.4837 15.4501L39.4683 15.3617L39.4536 15.2715L39.4394 15.1795L39.4256 15.0855L39.4124 14.9895L39.3997 14.8913L39.3876 14.7909L39.3759 14.6881L39.3648 14.5828L39.3541 14.4747L39.3441 14.3638L39.3345 14.2497L39.3255 14.1322L39.3169 14.0111L39.3088 13.8861L39.3013 13.7566L39.2943 13.6223L39.2878 13.4827L39.2819 13.3371L39.2764 13.1846L39.2715 13.0243L39.2671 12.8548L39.2631 12.6746L39.2597 12.481L39.2568 12.2709L39.2544 12.0392L39.2525 11.7773L39.2512 11.4694L39.2504 11.0766L39.25 10.399L39.2502 9.0831L39.2509 8.6433L39.252 8.31465L39.2537 8.04045L39.256 7.80025L39.2587 7.5839L39.262 7.38555L39.2658 7.2013L39.27 7.0286L39.2748 6.86555L39.2801 6.7107L39.2859 6.56295L39.2922 6.4215L39.299 6.2856L39.3064 6.1547L39.3143 6.02825L39.3227 5.90595L39.3316 5.78735L39.341 5.67225L39.3509 5.5603L39.3614 5.45135L39.3723 5.34515L39.3838 5.24155L39.3958 5.1404L39.4083 5.04155L39.4213 4.94488L39.4349 4.85027L39.449 4.75762L39.4636 4.66683L39.4787 4.57783L39.4944 4.49053L39.5106 4.40486L39.5272 4.32077L39.5445 4.23817L39.5622 4.15703L39.5806 4.07729L39.5993 3.9989L39.6187 3.92182L39.6386 3.84601L39.659 3.77142L39.68 3.69802L39.7015 3.62578L39.7234 3.55466L39.7461 3.48464L39.7691 3.41568L39.7928 3.34776L39.817 3.28087L39.8417 3.21496L39.867 3.15002L39.8928 3.08604L39.9192 3.02298L39.9461 2.96083L39.9736 2.89957L40.0017 2.8392L40.0303 2.77968L40.0594 2.721L40.0891 2.66316L40.1194 2.60613L40.1503 2.54991L40.1818 2.49447L40.2137 2.43982L40.2463 2.38594L40.2794 2.3328L40.3132 2.28042L40.3475 2.22878L40.3825 2.17786L40.4179 2.12765L40.454 2.07816L40.4907 2.02937L40.528 1.98126L40.566 1.93386L40.6045 1.88712L40.6436 1.84106L40.6833 1.79566L40.7238 1.75091L40.7648 1.70682L40.8064 1.66338L40.8487 1.62057L40.8915 1.5784L40.9351 1.53686L40.9793 1.49594L41.0242 1.45564L41.0697 1.41596L41.1159 1.37689L41.1628 1.33842L41.2104 1.30054L41.2586 1.26328L41.3075 1.2266L41.3572 1.19052L41.4076 1.15501L41.4587 1.12009L41.5105 1.08575L41.5631 1.05199L41.6164 1.0188L41.6705 0.986175L41.7253 0.95412L41.7809 0.92263L41.8374 0.8917L41.8946 0.861325L41.9526 0.83151L42.0116 0.80225L42.0713 0.77354L42.1318 0.745375L42.1933 0.71776L42.2556 0.69069L42.3189 0.664165L42.383 0.638175L42.4482 0.61273L42.5143 0.587815L42.5813 0.56344L42.6493 0.5396L42.7184 0.51629L42.7886 0.493506L42.8599 0.471254L42.9322 0.449529L43.0057 0.428331L43.0803 0.407656L43.1562 0.387504L43.2333 0.367874L43.3117 0.348765L43.3914 0.330175L43.4725 0.312102L43.5549 0.294548L43.6389 0.27751L43.7243 0.260986L43.8114 0.244977L43.9001 0.229481L43.9905 0.214496L44.0826 0.200024L44.1767 0.186062L44.2728 0.172611L44.3708 0.159668L44.4711 0.147234L44.5737 0.135307L44.6787 0.123887L44.7864 0.112973L44.8967 0.102566L45.0101 0.092664L45.1265 0.0832665L45.2465 0.0743735L45.3702 0.0659845L45.4978 0.0580985L45.63 0.0507155L45.767 0.0438351L45.9095 0.0374569L46.058 0.0315806L46.2135 0.026206L46.3769 0.0213326L46.5495 0.0169604L46.7331 0.013089L46.93 0.0097183L47.1436 0.00684805L47.3788 0.00447814L47.6439 0.00260847L47.9544 0.00123893L48.3466 0.000369452L48.9856 0L55.407 0.000130552L55.8725 0.000761115L56.215 0.00189171L56.499 0.00352241L56.747 0.0056533L56.9705 0.00828445L57.1745 0.011416L57.3645 0.0150482L57.542 0.0191811L57.7095 0.023815L57.8685 0.0289501L58.0205 0.0345866L58.1655 0.040725L58.305 0.0473653L58.4395 0.054508L58.5695 0.0621535L58.695 0.0703025L58.8165 0.0789545L58.9345 0.088111L59.0495 0.097772L59.1615 0.107938L59.27 0.11861L59.3765 0.129787L59.48 0.141472L59.5815 0.153663L59.6805 0.166363L59.7775 0.179571L59.8725 0.19329L59.9655 0.207518L60.057 0.222257L60.1465 0.237509L60.2345 0.253273L60.3205 0.269551L60.405 0.286343L60.4885 0.30365L60.57 0.321475L60.6505 0.339817L60.7295 0.358678L60.807 0.37806L60.8835 0.397962L60.959 0.418386L61.033 0.439335L61.1055 0.460809L61.1775 0.482809L61.248 0.505335L61.3175 0.528395L61.3865 0.551985L61.454 0.576105L61.5205 0.60076L61.586 0.62595L61.6505 0.65168L61.7145 0.67795L61.777 0.70476L61.839 0.732115L61.9 0.760015L61.96 0.788465L62.0195 0.81746L62.078 0.84701L62.1355 0.877115L62.192 0.90778L62.248 0.939005L62.3035 0.97079L62.358 1.00314L62.4115 1.03606L62.4645 1.06955L62.5165 1.10362L62.568 1.13826L62.619 1.17348L62.669 1.20929L62.718 1.24568L62.7665 1.28267L62.8145 1.32025L62.862 1.35843L62.9085 1.39721L62.954 1.4366L62.9995 1.47661L63.044 1.51723L63.0875 1.55848L63.131 1.60034L63.1735 1.64285L63.2155 1.68598L63.2565 1.72977L63.2975 1.77419L63.3375 1.81928L63.377 1.86503L63.4155 1.91144L63.454 1.95853L63.4915 2.0063L63.5285 2.05476L63.565 2.10391L63.6005 2.15378L63.636 2.20436L63.6705 2.25565L63.7045 2.30768L63.738 2.36046L63.771 2.41398L63.803 2.46827L63.835 2.52332L63.866 2.57917L63.8965 2.63581L63.9265 2.69326L63.956 2.75154L63.9845 2.81065L64.013 2.87062L64.041 2.93145L64.068 2.99317L64.0945 3.05579L64.121 3.11933L64.1465 3.18382L64.1715 3.24925L64.1955 3.31568L64.2195 3.38311L64.243 3.45156L64.266 3.52107L64.288 3.59166L64.31 3.66336L64.331 3.7362L64.3515 3.81022L64.372 3.88545L64.3915 3.96192L64.4105 4.03968L64.429 4.11876L64.447 4.19923L64.4645 4.28112L64.4815 4.36449L64.498 4.4494L64.514 4.53591L64.529 4.62409L64.544 4.71402L64.5585 4.80576L64.572 4.89943L64.5855 4.9951L64.5985 5.0929L64.6105 5.19295L64.6225 5.29535L64.6335 5.40025L64.644 5.5079L64.6545 5.61835L64.664 5.73195L64.673 5.84885L64.682 5.96935L64.69 6.09375L64.6975 6.22245L64.7045 6.35595L64.711 6.49465L64.717 6.6393L64.7225 6.7906L64.728 6.94955L64.7325 7.11745L64.7365 7.2959L64.74 7.48715L64.743 7.69435L64.745 7.9222L64.747 8.1785L64.7485 8.4774L64.7495 8.85175L64.75 9.4356V10ZM49.75 15.5H53.75C57.5395 15.5 59.75 13.1428 59.75 9.96855C59.75 6.76285 57.5695 4.5 53.81 4.5H49.75V15.5ZM47.75 15.5H44.75V4.5H47.75V15.5ZM11.2273 10C11.2273 13.0338 9.0287 15.75 5.72305 15.75C2.41739 15.75 0.25 13.0656 0.25 10C0.25 6.96615 2.44858 4.25 5.75425 4.25C9.0599 4.25 11.2273 6.9344 11.2273 10ZM1.09201 10C1.09201 12.7479 3.05669 15.0035 5.75425 15.0035C8.45175 15.0035 10.3853 12.7797 10.3853 10C10.3853 7.25205 8.4206 4.99654 5.72305 4.99654C3.02551 4.99654 1.09201 7.2203 1.09201 10ZM15.0233 15.5H14.25V4.5H15.0079L22.4787 14.07V4.5H23.2521V15.5H22.6488L15.0233 5.7257V15.5ZM34.25 15.5H26.4699V4.5H34.1726V5.2543H27.2742V9.5757H33.4767V10.33H27.2742V14.7457H34.25V15.5ZM54.349 13.5723C54.644 13.5638 54.98 13.5252 55.322 13.4387C55.363 13.4285 55.4045 13.4176 55.4475 13.4057C55.7115 13.3324 55.9975 13.2247 56.2915 13.0442C56.3635 13.0013 56.4335 12.9553 56.5025 12.9059L56.5 12.9049C56.7095 12.7526 56.9215 12.5598 57.132 12.3135C57.218 12.2125 57.3665 11.9989 57.4505 11.8332C57.256 11.627 56.96 11.4573 56.6825 11.3082L56.653 11.2922C56.5245 11.2229 56.2915 11.0975 56.0745 11.0125C56.0515 11.0035 56.027 10.9946 56.0025 10.9855C55.815 10.9164 55.5955 10.8355 55.5735 10.6126C55.5565 10.4407 55.6435 10.3333 55.7475 10.2053C55.7725 10.1746 55.7985 10.1427 55.824 10.1083C56.127 9.7037 56.412 9.15175 56.3605 8.4045C56.31 7.671 55.8405 7.1014 55.055 7.0135C54.964 7.00335 54.8755 6.99895 54.7895 7.0002C54.7035 6.99895 54.6145 7.00335 54.5235 7.0135C53.738 7.1014 53.2685 7.671 53.218 8.4045C53.1665 9.15175 53.4515 9.7037 53.7545 10.1083C53.7805 10.1427 53.806 10.1746 53.831 10.2053C53.935 10.3333 54.022 10.4407 54.005 10.6126C53.983 10.8355 53.7635 10.9164 53.576 10.9855C53.5515 10.9946 53.5275 11.0035 53.5045 11.0125C53.287 11.0975 53.0545 11.2229 52.9255 11.2922L52.896 11.3082C52.484 11.5295 52.032 11.7958 51.9305 12.1601C51.806 12.6057 51.739 13.1651 51.7515 13.5723H52.455C52.651 13.5723 52.8525 13.5742 53.058 13.5763C53.48 13.5805 53.9175 13.5847 54.349 13.5723Z" fill="white"/>
</svg>
