<svg width="17" height="16" viewBox="0 0 17 16" fill="none" xmlns="http://www.w3.org/2000/svg">
<path d="M11.8333 3.99967H15.1666V5.33301H13.8333V13.9997C13.8333 14.1765 13.763 14.3461 13.638 14.4711C13.513 14.5961 13.3434 14.6663 13.1666 14.6663H3.83325C3.65644 14.6663 3.48687 14.5961 3.36185 14.4711C3.23682 14.3461 3.16659 14.1765 3.16659 13.9997V5.33301H1.83325V3.99967H5.16659V1.99967C5.16659 1.82286 5.23682 1.65329 5.36185 1.52827C5.48687 1.40325 5.65644 1.33301 5.83325 1.33301H11.1666C11.3434 1.33301 11.513 1.40325 11.638 1.52827C11.763 1.65329 11.8333 1.82286 11.8333 1.99967V3.99967ZM12.4999 5.33301H4.49992V13.333H12.4999V5.33301ZM6.49992 7.33301H7.83325V11.333H6.49992V7.33301ZM9.16659 7.33301H10.4999V11.333H9.16659V7.33301ZM6.49992 2.66634V3.99967H10.4999V2.66634H6.49992Z" fill="#0F1324" fill-opacity="0.6"/>
</svg>
