<svg width="24" height="24" viewBox="0 0 24 24" fill="none" xmlns="http://www.w3.org/2000/svg">
<g clip-path="url(#clip0_2542_4029)">
<rect width="24" height="24" rx="12" fill="white"/>
<path fill-rule="evenodd" clip-rule="evenodd" d="M0 0H24V24H0V0Z" fill="white"/>
<path fill-rule="evenodd" clip-rule="evenodd" d="M0 8.00153H24V24H0V8.00153Z" fill="#0039A6"/>
<path fill-rule="evenodd" clip-rule="evenodd" d="M0 15.9985H24V24H0V15.9985Z" fill="#D52B1E"/>
<g clip-path="url(#clip1_2542_4029)">
<path d="M0 15.9984H24V24H0V15.9984Z" fill="#1EB53A"/>
<path d="M0 0H24V8.00156H0V0Z" fill="#0099B5"/>
<path d="M0 7.6781H24V16.3219H0V7.6781Z" fill="#CE1126"/>
<path d="M0 8.15625H24V15.8438H0V8.15625Z" fill="white"/>
<path d="M6.72187 6.71719C8.31142 6.71719 9.6 5.42861 9.6 3.83906C9.6 2.24952 8.31142 0.960938 6.72187 0.960938C5.13233 0.960938 3.84375 2.24952 3.84375 3.83906C3.84375 5.42861 5.13233 6.71719 6.72187 6.71719Z" fill="white"/>
<path d="M7.67817 6.71719C9.26772 6.71719 10.5563 5.42861 10.5563 3.83906C10.5563 2.24952 9.26772 0.960938 7.67817 0.960938C6.08863 0.960938 4.80005 2.24952 4.80005 3.83906C4.80005 5.42861 6.08863 6.71719 7.67817 6.71719Z" fill="#0099B5"/>
<path d="M13.0547 5.56458L12.8723 6.11178L13.1507 6.20778" fill="white"/>
<path d="M13.0547 5.56458L13.2371 6.11178L12.9587 6.20778" fill="white"/>
<path d="M13.6025 5.9626L13.0257 5.95822L13.0205 6.25266" fill="white"/>
<path d="M13.6024 5.96257L13.1384 6.30514L12.9611 6.07003" fill="white"/>
<path d="M12.5069 5.96257L12.971 6.30514L13.1483 6.07003" fill="white"/>
<path d="M12.5069 5.9626L13.0837 5.95822L13.0889 6.25266" fill="white"/>
<path d="M13.3933 6.60654L13.2193 6.05663L12.9376 6.14261" fill="white"/>
<path d="M13.3933 6.60653L12.9241 6.27105L13.0929 6.02975" fill="white"/>
<path d="M12.7162 6.60653L13.1854 6.27105L13.0166 6.02975" fill="white"/>
<path d="M12.7162 6.60654L12.8902 6.05663L13.1719 6.14261" fill="white"/>
<path d="M13.0547 3.26062L12.8723 3.80782L13.1507 3.90382" fill="white"/>
<path d="M13.0547 3.26062L13.2371 3.80782L12.9587 3.90382" fill="white"/>
<path d="M13.6025 3.65864L13.0257 3.65426L13.0205 3.9487" fill="white"/>
<path d="M13.6024 3.65862L13.1384 4.00119L12.9611 3.76608" fill="white"/>
<path d="M12.5069 3.65862L12.971 4.00119L13.1483 3.76608" fill="white"/>
<path d="M12.5069 3.65864L13.0837 3.65426L13.0889 3.9487" fill="white"/>
<path d="M13.3933 4.30259L13.2193 3.75268L12.9376 3.83865" fill="white"/>
<path d="M13.3933 4.30258L12.9241 3.9671L13.0929 3.72579" fill="white"/>
<path d="M12.7162 4.30258L13.1854 3.9671L13.0166 3.72579" fill="white"/>
<path d="M12.7162 4.30259L12.8902 3.75268L13.1719 3.83865" fill="white"/>
<path d="M13.0547 0.956604L12.8723 1.5038L13.1507 1.5998" fill="white"/>
<path d="M13.0547 0.956604L13.2371 1.5038L12.9587 1.5998" fill="white"/>
<path d="M13.6025 1.35463L13.0257 1.35025L13.0205 1.64469" fill="white"/>
<path d="M13.6024 1.3546L13.1384 1.69717L12.9611 1.46206" fill="white"/>
<path d="M12.5069 1.3546L12.971 1.69717L13.1483 1.46206" fill="white"/>
<path d="M12.5069 1.35463L13.0837 1.35025L13.0889 1.64469" fill="white"/>
<path d="M13.3933 1.99857L13.2193 1.44866L12.9376 1.53464" fill="white"/>
<path d="M13.3933 1.99856L12.9241 1.66308L13.0929 1.42177" fill="white"/>
<path d="M12.7162 1.99856L13.1854 1.66308L13.0166 1.42177" fill="white"/>
<path d="M12.7162 1.99857L12.8902 1.44866L13.1719 1.53464" fill="white"/>
<path d="M15.3587 5.56458L15.1763 6.11178L15.4547 6.20778" fill="white"/>
<path d="M15.3586 5.56458L15.541 6.11178L15.2626 6.20778" fill="white"/>
<path d="M15.9065 5.9626L15.3297 5.95822L15.3244 6.25266" fill="white"/>
<path d="M15.9064 5.96257L15.4424 6.30514L15.265 6.07003" fill="white"/>
<path d="M14.8109 5.96257L15.2749 6.30514L15.4523 6.07003" fill="white"/>
<path d="M14.8108 5.9626L15.3876 5.95822L15.3929 6.25266" fill="white"/>
<path d="M15.6973 6.60654L15.5232 6.05663L15.2416 6.14261" fill="white"/>
<path d="M15.6972 6.60653L15.228 6.27105L15.3968 6.02975" fill="white"/>
<path d="M15.0202 6.60653L15.4894 6.27105L15.3206 6.02975" fill="white"/>
<path d="M15.0201 6.60654L15.1942 6.05663L15.4759 6.14261" fill="white"/>
<path d="M15.3587 3.26062L15.1763 3.80782L15.4547 3.90382" fill="white"/>
<path d="M15.3586 3.26062L15.541 3.80782L15.2626 3.90382" fill="white"/>
<path d="M15.9065 3.65864L15.3297 3.65426L15.3244 3.9487" fill="white"/>
<path d="M15.9064 3.65862L15.4424 4.00119L15.265 3.76608" fill="white"/>
<path d="M14.8109 3.65862L15.2749 4.00119L15.4523 3.76608" fill="white"/>
<path d="M14.8108 3.65864L15.3876 3.65426L15.3929 3.9487" fill="white"/>
<path d="M15.6973 4.30259L15.5232 3.75268L15.2416 3.83865" fill="white"/>
<path d="M15.6972 4.30258L15.228 3.9671L15.3968 3.72579" fill="white"/>
<path d="M15.0202 4.30258L15.4894 3.9671L15.3206 3.72579" fill="white"/>
<path d="M15.0201 4.30259L15.1942 3.75268L15.4759 3.83865" fill="white"/>
<path d="M15.3587 0.956604L15.1763 1.5038L15.4547 1.5998" fill="white"/>
<path d="M15.3586 0.956604L15.541 1.5038L15.2626 1.5998" fill="white"/>
<path d="M15.9065 1.35463L15.3297 1.35025L15.3244 1.64469" fill="white"/>
<path d="M15.9064 1.3546L15.4424 1.69717L15.265 1.46206" fill="white"/>
<path d="M14.8109 1.3546L15.2749 1.69717L15.4523 1.46206" fill="white"/>
<path d="M14.8108 1.35463L15.3876 1.35025L15.3929 1.64469" fill="white"/>
<path d="M15.6973 1.99857L15.5232 1.44866L15.2416 1.53464" fill="white"/>
<path d="M15.6972 1.99856L15.228 1.66308L15.3968 1.42177" fill="white"/>
<path d="M15.0202 1.99856L15.4894 1.66308L15.3206 1.42177" fill="white"/>
<path d="M15.0201 1.99857L15.1942 1.44866L15.4759 1.53464" fill="white"/>
<path d="M17.6626 5.56458L17.4802 6.11178L17.7586 6.20778" fill="white"/>
<path d="M17.6626 5.56458L17.845 6.11178L17.5666 6.20778" fill="white"/>
<path d="M18.2104 5.9626L17.6336 5.95822L17.6284 6.25266" fill="white"/>
<path d="M18.2104 5.96257L17.7463 6.30514L17.569 6.07003" fill="white"/>
<path d="M17.1148 5.96257L17.5789 6.30514L17.7562 6.07003" fill="white"/>
<path d="M17.1148 5.9626L17.6916 5.95822L17.6968 6.25266" fill="white"/>
<path d="M18.0012 6.60654L17.8272 6.05663L17.5455 6.14261" fill="white"/>
<path d="M18.0012 6.60653L17.532 6.27105L17.7008 6.02975" fill="white"/>
<path d="M17.3241 6.60653L17.7933 6.27105L17.6245 6.02975" fill="white"/>
<path d="M17.3241 6.60654L17.4981 6.05663L17.7798 6.14261" fill="white"/>
<path d="M17.6626 3.26062L17.4802 3.80782L17.7586 3.90382" fill="white"/>
<path d="M17.6626 3.26062L17.845 3.80782L17.5666 3.90382" fill="white"/>
<path d="M18.2104 3.65864L17.6336 3.65426L17.6284 3.9487" fill="white"/>
<path d="M18.2104 3.65862L17.7463 4.00119L17.569 3.76608" fill="white"/>
<path d="M17.1148 3.65862L17.5789 4.00119L17.7562 3.76608" fill="white"/>
<path d="M17.1148 3.65864L17.6916 3.65426L17.6968 3.9487" fill="white"/>
<path d="M18.0012 4.30259L17.8272 3.75268L17.5455 3.83865" fill="white"/>
<path d="M18.0012 4.30258L17.532 3.9671L17.7008 3.72579" fill="white"/>
<path d="M17.3241 4.30258L17.7933 3.9671L17.6245 3.72579" fill="white"/>
<path d="M17.3241 4.30259L17.4981 3.75268L17.7798 3.83865" fill="white"/>
<path d="M17.6626 0.956604L17.4802 1.5038L17.7586 1.5998" fill="white"/>
<path d="M17.6626 0.956604L17.845 1.5038L17.5666 1.5998" fill="white"/>
<path d="M18.2104 1.35463L17.6336 1.35025L17.6284 1.64469" fill="white"/>
<path d="M18.2104 1.3546L17.7463 1.69717L17.569 1.46206" fill="white"/>
<path d="M17.1148 1.3546L17.5789 1.69717L17.7562 1.46206" fill="white"/>
<path d="M17.1148 1.35463L17.6916 1.35025L17.6968 1.64469" fill="white"/>
<path d="M18.0012 1.99857L17.8272 1.44866L17.5455 1.53464" fill="white"/>
<path d="M18.0012 1.99856L17.532 1.66308L17.7008 1.42177" fill="white"/>
<path d="M17.3241 1.99856L17.7933 1.66308L17.6245 1.42177" fill="white"/>
<path d="M17.3241 1.99857L17.4981 1.44866L17.7798 1.53464" fill="white"/>
<path d="M8.44668 5.56458L8.26428 6.11178L8.54268 6.20778" fill="white"/>
<path d="M8.44663 5.56458L8.62903 6.11178L8.35063 6.20778" fill="white"/>
<path d="M8.99448 5.9626L8.41769 5.95822L8.41242 6.25266" fill="white"/>
<path d="M8.99442 5.96257L8.53036 6.30514L8.35303 6.07003" fill="white"/>
<path d="M7.89889 5.96257L8.36295 6.30514L8.54028 6.07003" fill="white"/>
<path d="M7.89884 5.9626L8.47562 5.95822L8.48089 6.25266" fill="white"/>
<path d="M8.7853 6.60654L8.61123 6.05663L8.32957 6.14261" fill="white"/>
<path d="M8.78526 6.60653L8.31606 6.27105L8.48486 6.02975" fill="white"/>
<path d="M8.10817 6.60653L8.57737 6.27105L8.40857 6.02975" fill="white"/>
<path d="M8.10814 6.60654L8.28221 6.05663L8.56387 6.14261" fill="white"/>
<path d="M10.7506 5.56458L10.5682 6.11178L10.8466 6.20778" fill="white"/>
<path d="M10.7506 5.56458L10.933 6.11178L10.6546 6.20778" fill="white"/>
<path d="M11.2984 5.9626L10.7216 5.95822L10.7164 6.25266" fill="white"/>
<path d="M11.2984 5.96257L10.8343 6.30514L10.657 6.07003" fill="white"/>
<path d="M10.2028 5.96257L10.6669 6.30514L10.8442 6.07003" fill="white"/>
<path d="M10.2028 5.9626L10.7796 5.95822L10.7848 6.25266" fill="white"/>
<path d="M11.0893 6.60654L10.9152 6.05663L10.6335 6.14261" fill="white"/>
<path d="M11.0892 6.60653L10.62 6.27105L10.7888 6.02975" fill="white"/>
<path d="M10.4121 6.60653L10.8813 6.27105L10.7125 6.02975" fill="white"/>
<path d="M10.4121 6.60654L10.5862 6.05663L10.8678 6.14261" fill="white"/>
<path d="M10.7506 3.26062L10.5682 3.80782L10.8466 3.90382" fill="white"/>
<path d="M10.7506 3.26062L10.933 3.80782L10.6546 3.90382" fill="white"/>
<path d="M11.2984 3.65864L10.7216 3.65426L10.7164 3.9487" fill="white"/>
<path d="M11.2984 3.65862L10.8343 4.00119L10.657 3.76608" fill="white"/>
<path d="M10.2028 3.65862L10.6669 4.00119L10.8442 3.76608" fill="white"/>
<path d="M10.2028 3.65864L10.7796 3.65426L10.7848 3.9487" fill="white"/>
<path d="M11.0893 4.30259L10.9152 3.75268L10.6335 3.83865" fill="white"/>
<path d="M11.0892 4.30258L10.62 3.9671L10.7888 3.72579" fill="white"/>
<path d="M10.4121 4.30258L10.8813 3.9671L10.7125 3.72579" fill="white"/>
<path d="M10.4121 4.30259L10.5862 3.75268L10.8678 3.83865" fill="white"/>
</g>
</g>
<rect x="0.5" y="0.5" width="23" height="23" rx="11.5" stroke="#E5E7EB"/>
<defs>
<clipPath id="clip0_2542_4029">
<rect width="24" height="24" rx="12" fill="white"/>
</clipPath>
<clipPath id="clip1_2542_4029">
<rect width="24" height="24" fill="white"/>
</clipPath>
</defs>
</svg>
